# xmcd
#
# Track frame offsets: 
#        150
#        19157
#        37082
#        57462
#        74173
#        98666
#        117431
#        142287
#        164721
#        180541
#
# Disc length: 2708 seconds
#
# Revision: 1
# Processed by: cddbd v1.5.2PL0 Copyright (c) Steve Scherf et al.
# Submitted via: ExactAudioCopy v1.5
#
DISCID=9e0a920a
DTITLE=Bombino - Deran
DYEAR=2018
DGENRE=Desert Blues
TTITLE0=Imajghane
TTITLE1=Deran Deran Alkheir
TTITLE2=Tehigren
TTITLE3=Midiwan
TTITLE4=Tenesse
TTITLE5=Oulhin
TTITLE6=Adouni Dagh
TTITLE7=Tamasheq
TTITLE8=Takamba
TTITLE9=Adouagh Chegren
EXTD=
EXTT0=
EXTT1=
EXTT2=
EXTT3=
EXTT4=
EXTT5=
EXTT6=
EXTT7=
EXTT8=
EXTT9=
PLAYORDER=
